<mxfile host="app.diagrams.net" modified="2024-06-19T07:17:52.948Z" agent="Mozilla/5.0 (X11; Linux x86_64) AppleWebKit/537.36 (KHTML, like Gecko) Chrome/125.0.0.0 Safari/537.36" etag="BCx3X_EVUdMpz15UbSI_" version="24.5.5" type="github">
  <diagram name="Page-1" id="DiLHvJeCMyA0wImpErv_">
    <mxGraphModel dx="1434" dy="820" grid="1" gridSize="10" guides="1" tooltips="1" connect="1" arrows="1" fold="1" page="1" pageScale="1" pageWidth="827" pageHeight="1169" math="0" shadow="0">
      <root>
        <mxCell id="0" />
        <mxCell id="1" parent="0" />
        <mxCell id="_7qX7cvVcUHjCldmI5O1-1" value="Utilisateur" style="shape=umlLifeline;perimeter=lifelinePerimeter;whiteSpace=wrap;html=1;container=1;dropTarget=0;collapsible=0;recursiveResize=0;outlineConnect=0;portConstraint=eastwest;newEdgeStyle={&quot;edgeStyle&quot;:&quot;elbowEdgeStyle&quot;,&quot;elbow&quot;:&quot;vertical&quot;,&quot;curved&quot;:0,&quot;rounded&quot;:0};" vertex="1" parent="1">
          <mxGeometry x="100" y="80" width="100" height="400" as="geometry" />
        </mxCell>
        <mxCell id="_7qX7cvVcUHjCldmI5O1-14" value="" style="html=1;points=[[0,0,0,0,5],[0,1,0,0,-5],[1,0,0,0,5],[1,1,0,0,-5]];perimeter=orthogonalPerimeter;outlineConnect=0;targetShapes=umlLifeline;portConstraint=eastwest;newEdgeStyle={&quot;curved&quot;:0,&quot;rounded&quot;:0};" vertex="1" parent="_7qX7cvVcUHjCldmI5O1-1">
          <mxGeometry x="45" y="70" width="10" height="60" as="geometry" />
        </mxCell>
        <mxCell id="_7qX7cvVcUHjCldmI5O1-24" value="" style="html=1;points=[[0,0,0,0,5],[0,1,0,0,-5],[1,0,0,0,5],[1,1,0,0,-5]];perimeter=orthogonalPerimeter;outlineConnect=0;targetShapes=umlLifeline;portConstraint=eastwest;newEdgeStyle={&quot;curved&quot;:0,&quot;rounded&quot;:0};" vertex="1" parent="_7qX7cvVcUHjCldmI5O1-1">
          <mxGeometry x="45" y="160" width="10" height="60" as="geometry" />
        </mxCell>
        <mxCell id="_7qX7cvVcUHjCldmI5O1-40" value="" style="html=1;points=[[0,0,0,0,5],[0,1,0,0,-5],[1,0,0,0,5],[1,1,0,0,-5]];perimeter=orthogonalPerimeter;outlineConnect=0;targetShapes=umlLifeline;portConstraint=eastwest;newEdgeStyle={&quot;curved&quot;:0,&quot;rounded&quot;:0};" vertex="1" parent="_7qX7cvVcUHjCldmI5O1-1">
          <mxGeometry x="45" y="240" width="10" height="60" as="geometry" />
        </mxCell>
        <mxCell id="_7qX7cvVcUHjCldmI5O1-52" value="" style="html=1;points=[[0,0,0,0,5],[0,1,0,0,-5],[1,0,0,0,5],[1,1,0,0,-5]];perimeter=orthogonalPerimeter;outlineConnect=0;targetShapes=umlLifeline;portConstraint=eastwest;newEdgeStyle={&quot;curved&quot;:0,&quot;rounded&quot;:0};" vertex="1" parent="_7qX7cvVcUHjCldmI5O1-1">
          <mxGeometry x="45" y="330" width="10" height="60" as="geometry" />
        </mxCell>
        <mxCell id="_7qX7cvVcUHjCldmI5O1-2" value="Systheme" style="shape=umlLifeline;perimeter=lifelinePerimeter;whiteSpace=wrap;html=1;container=1;dropTarget=0;collapsible=0;recursiveResize=0;outlineConnect=0;portConstraint=eastwest;newEdgeStyle={&quot;edgeStyle&quot;:&quot;elbowEdgeStyle&quot;,&quot;elbow&quot;:&quot;vertical&quot;,&quot;curved&quot;:0,&quot;rounded&quot;:0};" vertex="1" parent="1">
          <mxGeometry x="320" y="80" width="100" height="400" as="geometry" />
        </mxCell>
        <mxCell id="_7qX7cvVcUHjCldmI5O1-12" value="" style="html=1;points=[[0,0,0,0,5],[0,1,0,0,-5],[1,0,0,0,5],[1,1,0,0,-5]];perimeter=orthogonalPerimeter;outlineConnect=0;targetShapes=umlLifeline;portConstraint=eastwest;newEdgeStyle={&quot;curved&quot;:0,&quot;rounded&quot;:0};" vertex="1" parent="_7qX7cvVcUHjCldmI5O1-2">
          <mxGeometry x="45" y="70" width="10" height="60" as="geometry" />
        </mxCell>
        <mxCell id="_7qX7cvVcUHjCldmI5O1-25" value="" style="html=1;points=[[0,0,0,0,5],[0,1,0,0,-5],[1,0,0,0,5],[1,1,0,0,-5]];perimeter=orthogonalPerimeter;outlineConnect=0;targetShapes=umlLifeline;portConstraint=eastwest;newEdgeStyle={&quot;curved&quot;:0,&quot;rounded&quot;:0};" vertex="1" parent="_7qX7cvVcUHjCldmI5O1-2">
          <mxGeometry x="45" y="160" width="10" height="60" as="geometry" />
        </mxCell>
        <mxCell id="_7qX7cvVcUHjCldmI5O1-39" value="" style="html=1;points=[[0,0,0,0,5],[0,1,0,0,-5],[1,0,0,0,5],[1,1,0,0,-5]];perimeter=orthogonalPerimeter;outlineConnect=0;targetShapes=umlLifeline;portConstraint=eastwest;newEdgeStyle={&quot;curved&quot;:0,&quot;rounded&quot;:0};" vertex="1" parent="_7qX7cvVcUHjCldmI5O1-2">
          <mxGeometry x="45" y="240" width="10" height="50" as="geometry" />
        </mxCell>
        <mxCell id="_7qX7cvVcUHjCldmI5O1-51" value="" style="html=1;points=[[0,0,0,0,5],[0,1,0,0,-5],[1,0,0,0,5],[1,1,0,0,-5]];perimeter=orthogonalPerimeter;outlineConnect=0;targetShapes=umlLifeline;portConstraint=eastwest;newEdgeStyle={&quot;curved&quot;:0,&quot;rounded&quot;:0};" vertex="1" parent="_7qX7cvVcUHjCldmI5O1-2">
          <mxGeometry x="45" y="330" width="10" height="60" as="geometry" />
        </mxCell>
        <mxCell id="_7qX7cvVcUHjCldmI5O1-3" value="DAL" style="shape=umlLifeline;perimeter=lifelinePerimeter;whiteSpace=wrap;html=1;container=1;dropTarget=0;collapsible=0;recursiveResize=0;outlineConnect=0;portConstraint=eastwest;newEdgeStyle={&quot;edgeStyle&quot;:&quot;elbowEdgeStyle&quot;,&quot;elbow&quot;:&quot;vertical&quot;,&quot;curved&quot;:0,&quot;rounded&quot;:0};" vertex="1" parent="1">
          <mxGeometry x="540" y="80" width="100" height="400" as="geometry" />
        </mxCell>
        <mxCell id="_7qX7cvVcUHjCldmI5O1-13" value="" style="html=1;points=[[0,0,0,0,5],[0,1,0,0,-5],[1,0,0,0,5],[1,1,0,0,-5]];perimeter=orthogonalPerimeter;outlineConnect=0;targetShapes=umlLifeline;portConstraint=eastwest;newEdgeStyle={&quot;curved&quot;:0,&quot;rounded&quot;:0};" vertex="1" parent="_7qX7cvVcUHjCldmI5O1-3">
          <mxGeometry x="45" y="80" width="10" height="40" as="geometry" />
        </mxCell>
        <mxCell id="_7qX7cvVcUHjCldmI5O1-50" value="" style="html=1;points=[[0,0,0,0,5],[0,1,0,0,-5],[1,0,0,0,5],[1,1,0,0,-5]];perimeter=orthogonalPerimeter;outlineConnect=0;targetShapes=umlLifeline;portConstraint=eastwest;newEdgeStyle={&quot;curved&quot;:0,&quot;rounded&quot;:0};" vertex="1" parent="_7qX7cvVcUHjCldmI5O1-3">
          <mxGeometry x="45" y="340" width="10" height="50" as="geometry" />
        </mxCell>
        <mxCell id="_7qX7cvVcUHjCldmI5O1-4" value="" style="html=1;verticalAlign=bottom;labelBackgroundColor=none;endArrow=block;endFill=1;rounded=0;" edge="1" parent="1" target="_7qX7cvVcUHjCldmI5O1-2">
          <mxGeometry width="160" relative="1" as="geometry">
            <mxPoint x="150" y="160" as="sourcePoint" />
            <mxPoint x="310" y="160" as="targetPoint" />
          </mxGeometry>
        </mxCell>
        <mxCell id="_7qX7cvVcUHjCldmI5O1-5" value="Click &quot;Occasion&quot;" style="edgeLabel;html=1;align=center;verticalAlign=middle;resizable=0;points=[];" vertex="1" connectable="0" parent="_7qX7cvVcUHjCldmI5O1-4">
          <mxGeometry x="-0.7722" y="-2" relative="1" as="geometry">
            <mxPoint x="75" y="-12" as="offset" />
          </mxGeometry>
        </mxCell>
        <mxCell id="_7qX7cvVcUHjCldmI5O1-6" value="" style="html=1;verticalAlign=bottom;labelBackgroundColor=none;endArrow=block;endFill=1;rounded=0;" edge="1" parent="1">
          <mxGeometry width="160" relative="1" as="geometry">
            <mxPoint x="370" y="170" as="sourcePoint" />
            <mxPoint x="590" y="170" as="targetPoint" />
          </mxGeometry>
        </mxCell>
        <mxCell id="_7qX7cvVcUHjCldmI5O1-7" value="Select * From Moto" style="edgeLabel;html=1;align=center;verticalAlign=middle;resizable=0;points=[];" vertex="1" connectable="0" parent="_7qX7cvVcUHjCldmI5O1-6">
          <mxGeometry x="-0.7722" y="-2" relative="1" as="geometry">
            <mxPoint x="75" y="-12" as="offset" />
          </mxGeometry>
        </mxCell>
        <mxCell id="_7qX7cvVcUHjCldmI5O1-8" value="" style="html=1;verticalAlign=bottom;labelBackgroundColor=none;endArrow=block;endFill=1;rounded=0;dashed=1;" edge="1" parent="1">
          <mxGeometry width="160" relative="1" as="geometry">
            <mxPoint x="589.5" y="190" as="sourcePoint" />
            <mxPoint x="369.5" y="190" as="targetPoint" />
          </mxGeometry>
        </mxCell>
        <mxCell id="_7qX7cvVcUHjCldmI5O1-9" value="Liste Moto" style="edgeLabel;html=1;align=center;verticalAlign=middle;resizable=0;points=[];" vertex="1" connectable="0" parent="_7qX7cvVcUHjCldmI5O1-8">
          <mxGeometry x="-0.7722" y="-2" relative="1" as="geometry">
            <mxPoint x="-94" y="12" as="offset" />
          </mxGeometry>
        </mxCell>
        <mxCell id="_7qX7cvVcUHjCldmI5O1-10" value="" style="html=1;verticalAlign=bottom;labelBackgroundColor=none;endArrow=block;endFill=1;rounded=0;dashed=1;" edge="1" parent="1" source="_7qX7cvVcUHjCldmI5O1-2" target="_7qX7cvVcUHjCldmI5O1-1">
          <mxGeometry width="160" relative="1" as="geometry">
            <mxPoint x="170" y="310" as="sourcePoint" />
            <mxPoint x="390" y="310" as="targetPoint" />
            <Array as="points">
              <mxPoint x="280" y="200" />
            </Array>
          </mxGeometry>
        </mxCell>
        <mxCell id="_7qX7cvVcUHjCldmI5O1-11" value="Affiche la liste de moto" style="edgeLabel;html=1;align=center;verticalAlign=middle;resizable=0;points=[];" vertex="1" connectable="0" parent="_7qX7cvVcUHjCldmI5O1-10">
          <mxGeometry x="-0.7722" y="-2" relative="1" as="geometry">
            <mxPoint x="-84" y="12" as="offset" />
          </mxGeometry>
        </mxCell>
        <mxCell id="_7qX7cvVcUHjCldmI5O1-15" value="" style="html=1;verticalAlign=bottom;labelBackgroundColor=none;endArrow=block;endFill=1;rounded=0;" edge="1" parent="1">
          <mxGeometry width="160" relative="1" as="geometry">
            <mxPoint x="150" y="250" as="sourcePoint" />
            <mxPoint x="370" y="250" as="targetPoint" />
          </mxGeometry>
        </mxCell>
        <mxCell id="_7qX7cvVcUHjCldmI5O1-16" value="Utilise le filtre &quot;Marque&quot;" style="edgeLabel;html=1;align=center;verticalAlign=middle;resizable=0;points=[];" vertex="1" connectable="0" parent="_7qX7cvVcUHjCldmI5O1-15">
          <mxGeometry x="-0.7722" y="-2" relative="1" as="geometry">
            <mxPoint x="75" y="-12" as="offset" />
          </mxGeometry>
        </mxCell>
        <mxCell id="_7qX7cvVcUHjCldmI5O1-17" value="" style="html=1;verticalAlign=bottom;labelBackgroundColor=none;endArrow=block;endFill=1;rounded=0;" edge="1" parent="1" target="_7qX7cvVcUHjCldmI5O1-3">
          <mxGeometry width="160" relative="1" as="geometry">
            <mxPoint x="370" y="260" as="sourcePoint" />
            <mxPoint x="590" y="260" as="targetPoint" />
          </mxGeometry>
        </mxCell>
        <mxCell id="_7qX7cvVcUHjCldmI5O1-18" value="Select * From Moto Where Marque" style="edgeLabel;html=1;align=center;verticalAlign=middle;resizable=0;points=[];" vertex="1" connectable="0" parent="_7qX7cvVcUHjCldmI5O1-17">
          <mxGeometry x="-0.7722" y="-2" relative="1" as="geometry">
            <mxPoint x="75" y="-12" as="offset" />
          </mxGeometry>
        </mxCell>
        <mxCell id="_7qX7cvVcUHjCldmI5O1-19" value="" style="html=1;verticalAlign=bottom;labelBackgroundColor=none;endArrow=block;endFill=1;rounded=0;dashed=1;" edge="1" parent="1" source="_7qX7cvVcUHjCldmI5O1-26">
          <mxGeometry width="160" relative="1" as="geometry">
            <mxPoint x="590" y="280" as="sourcePoint" />
            <mxPoint x="370" y="280" as="targetPoint" />
          </mxGeometry>
        </mxCell>
        <mxCell id="_7qX7cvVcUHjCldmI5O1-22" value="" style="html=1;verticalAlign=bottom;labelBackgroundColor=none;endArrow=block;endFill=1;rounded=0;dashed=1;" edge="1" parent="1">
          <mxGeometry width="160" relative="1" as="geometry">
            <mxPoint x="370" y="290" as="sourcePoint" />
            <mxPoint x="150" y="290" as="targetPoint" />
          </mxGeometry>
        </mxCell>
        <mxCell id="_7qX7cvVcUHjCldmI5O1-23" value="Met a jour la liste" style="edgeLabel;html=1;align=center;verticalAlign=middle;resizable=0;points=[];" vertex="1" connectable="0" parent="_7qX7cvVcUHjCldmI5O1-22">
          <mxGeometry x="-0.7722" y="-2" relative="1" as="geometry">
            <mxPoint x="-93" y="12" as="offset" />
          </mxGeometry>
        </mxCell>
        <mxCell id="_7qX7cvVcUHjCldmI5O1-27" value="" style="html=1;verticalAlign=bottom;labelBackgroundColor=none;endArrow=block;endFill=1;rounded=0;dashed=1;" edge="1" parent="1" target="_7qX7cvVcUHjCldmI5O1-26">
          <mxGeometry width="160" relative="1" as="geometry">
            <mxPoint x="590" y="280" as="sourcePoint" />
            <mxPoint x="370" y="280" as="targetPoint" />
          </mxGeometry>
        </mxCell>
        <mxCell id="_7qX7cvVcUHjCldmI5O1-28" value="Mise a jour de la liste" style="edgeLabel;html=1;align=center;verticalAlign=middle;resizable=0;points=[];" vertex="1" connectable="0" parent="_7qX7cvVcUHjCldmI5O1-27">
          <mxGeometry x="-0.7722" y="-2" relative="1" as="geometry">
            <mxPoint x="-93" y="12" as="offset" />
          </mxGeometry>
        </mxCell>
        <mxCell id="_7qX7cvVcUHjCldmI5O1-26" value="" style="html=1;points=[[0,0,0,0,5],[0,1,0,0,-5],[1,0,0,0,5],[1,1,0,0,-5]];perimeter=orthogonalPerimeter;outlineConnect=0;targetShapes=umlLifeline;portConstraint=eastwest;newEdgeStyle={&quot;curved&quot;:0,&quot;rounded&quot;:0};" vertex="1" parent="1">
          <mxGeometry x="585" y="250" width="10" height="50" as="geometry" />
        </mxCell>
        <mxCell id="_7qX7cvVcUHjCldmI5O1-29" value="" style="html=1;verticalAlign=bottom;labelBackgroundColor=none;endArrow=block;endFill=1;rounded=0;" edge="1" parent="1">
          <mxGeometry width="160" relative="1" as="geometry">
            <mxPoint x="150" y="330" as="sourcePoint" />
            <mxPoint x="370" y="330" as="targetPoint" />
          </mxGeometry>
        </mxCell>
        <mxCell id="_7qX7cvVcUHjCldmI5O1-30" value="Utilise le filtre &quot;Permis&quot;" style="edgeLabel;html=1;align=center;verticalAlign=middle;resizable=0;points=[];" vertex="1" connectable="0" parent="_7qX7cvVcUHjCldmI5O1-29">
          <mxGeometry x="-0.7722" y="-2" relative="1" as="geometry">
            <mxPoint x="75" y="-12" as="offset" />
          </mxGeometry>
        </mxCell>
        <mxCell id="_7qX7cvVcUHjCldmI5O1-31" value="" style="html=1;verticalAlign=bottom;labelBackgroundColor=none;endArrow=block;endFill=1;rounded=0;dashed=1;" edge="1" parent="1">
          <mxGeometry width="160" relative="1" as="geometry">
            <mxPoint x="370" y="370" as="sourcePoint" />
            <mxPoint x="150" y="370" as="targetPoint" />
          </mxGeometry>
        </mxCell>
        <mxCell id="_7qX7cvVcUHjCldmI5O1-32" value="Met a jour la liste" style="edgeLabel;html=1;align=center;verticalAlign=middle;resizable=0;points=[];" vertex="1" connectable="0" parent="_7qX7cvVcUHjCldmI5O1-31">
          <mxGeometry x="-0.7722" y="-2" relative="1" as="geometry">
            <mxPoint x="-93" y="12" as="offset" />
          </mxGeometry>
        </mxCell>
        <mxCell id="_7qX7cvVcUHjCldmI5O1-33" value="" style="html=1;verticalAlign=bottom;labelBackgroundColor=none;endArrow=block;endFill=1;rounded=0;" edge="1" parent="1" source="_7qX7cvVcUHjCldmI5O1-36">
          <mxGeometry width="160" relative="1" as="geometry">
            <mxPoint x="370" y="340" as="sourcePoint" />
            <mxPoint x="590" y="340" as="targetPoint" />
          </mxGeometry>
        </mxCell>
        <mxCell id="_7qX7cvVcUHjCldmI5O1-35" value="" style="html=1;verticalAlign=bottom;labelBackgroundColor=none;endArrow=block;endFill=1;rounded=0;dashed=1;" edge="1" parent="1">
          <mxGeometry width="160" relative="1" as="geometry">
            <mxPoint x="585" y="360" as="sourcePoint" />
            <mxPoint x="370" y="360" as="targetPoint" />
          </mxGeometry>
        </mxCell>
        <mxCell id="_7qX7cvVcUHjCldmI5O1-37" value="" style="html=1;verticalAlign=bottom;labelBackgroundColor=none;endArrow=block;endFill=1;rounded=0;" edge="1" parent="1" target="_7qX7cvVcUHjCldmI5O1-36">
          <mxGeometry width="160" relative="1" as="geometry">
            <mxPoint x="370" y="340" as="sourcePoint" />
            <mxPoint x="590" y="340" as="targetPoint" />
          </mxGeometry>
        </mxCell>
        <mxCell id="_7qX7cvVcUHjCldmI5O1-38" value="Select * From Moto Where Permis" style="edgeLabel;html=1;align=center;verticalAlign=middle;resizable=0;points=[];" vertex="1" connectable="0" parent="_7qX7cvVcUHjCldmI5O1-37">
          <mxGeometry x="-0.7722" y="-2" relative="1" as="geometry">
            <mxPoint x="75" y="-12" as="offset" />
          </mxGeometry>
        </mxCell>
        <mxCell id="_7qX7cvVcUHjCldmI5O1-36" value="" style="html=1;points=[[0,0,0,0,5],[0,1,0,0,-5],[1,0,0,0,5],[1,1,0,0,-5]];perimeter=orthogonalPerimeter;outlineConnect=0;targetShapes=umlLifeline;portConstraint=eastwest;newEdgeStyle={&quot;curved&quot;:0,&quot;rounded&quot;:0};" vertex="1" parent="1">
          <mxGeometry x="585" y="320" width="10" height="50" as="geometry" />
        </mxCell>
        <mxCell id="_7qX7cvVcUHjCldmI5O1-41" value="" style="html=1;verticalAlign=bottom;labelBackgroundColor=none;endArrow=block;endFill=1;rounded=0;" edge="1" parent="1">
          <mxGeometry width="160" relative="1" as="geometry">
            <mxPoint x="150" y="420" as="sourcePoint" />
            <mxPoint x="370" y="420" as="targetPoint" />
          </mxGeometry>
        </mxCell>
        <mxCell id="_7qX7cvVcUHjCldmI5O1-42" value="Utilise le filtre &quot;Permis&quot; et &quot;Marque&quot;" style="edgeLabel;html=1;align=center;verticalAlign=middle;resizable=0;points=[];" vertex="1" connectable="0" parent="_7qX7cvVcUHjCldmI5O1-41">
          <mxGeometry x="-0.7722" y="-2" relative="1" as="geometry">
            <mxPoint x="75" y="-12" as="offset" />
          </mxGeometry>
        </mxCell>
        <mxCell id="_7qX7cvVcUHjCldmI5O1-43" value="" style="html=1;verticalAlign=bottom;labelBackgroundColor=none;endArrow=block;endFill=1;rounded=0;dashed=1;" edge="1" parent="1">
          <mxGeometry width="160" relative="1" as="geometry">
            <mxPoint x="370" y="460" as="sourcePoint" />
            <mxPoint x="150" y="460" as="targetPoint" />
          </mxGeometry>
        </mxCell>
        <mxCell id="_7qX7cvVcUHjCldmI5O1-44" value="Met a jour la liste" style="edgeLabel;html=1;align=center;verticalAlign=middle;resizable=0;points=[];" vertex="1" connectable="0" parent="_7qX7cvVcUHjCldmI5O1-43">
          <mxGeometry x="-0.7722" y="-2" relative="1" as="geometry">
            <mxPoint x="-93" y="12" as="offset" />
          </mxGeometry>
        </mxCell>
        <mxCell id="_7qX7cvVcUHjCldmI5O1-45" value="" style="html=1;verticalAlign=bottom;labelBackgroundColor=none;endArrow=block;endFill=1;rounded=0;" edge="1" parent="1">
          <mxGeometry width="160" relative="1" as="geometry">
            <mxPoint x="370" y="430" as="sourcePoint" />
            <mxPoint x="585" y="430" as="targetPoint" />
          </mxGeometry>
        </mxCell>
        <mxCell id="_7qX7cvVcUHjCldmI5O1-46" value="Select * From Moto&amp;nbsp;&lt;div&gt;Where Permis And Marque&lt;/div&gt;" style="edgeLabel;html=1;align=center;verticalAlign=middle;resizable=0;points=[];" vertex="1" connectable="0" parent="_7qX7cvVcUHjCldmI5O1-45">
          <mxGeometry x="-0.7722" y="-2" relative="1" as="geometry">
            <mxPoint x="86" y="-22" as="offset" />
          </mxGeometry>
        </mxCell>
        <mxCell id="_7qX7cvVcUHjCldmI5O1-47" value="" style="html=1;verticalAlign=bottom;labelBackgroundColor=none;endArrow=block;endFill=1;rounded=0;dashed=1;" edge="1" parent="1">
          <mxGeometry width="160" relative="1" as="geometry">
            <mxPoint x="585" y="450" as="sourcePoint" />
            <mxPoint x="370" y="450" as="targetPoint" />
          </mxGeometry>
        </mxCell>
        <mxCell id="_7qX7cvVcUHjCldmI5O1-48" value="Mise a jour de la liste" style="edgeLabel;html=1;align=center;verticalAlign=middle;resizable=0;points=[];" vertex="1" connectable="0" parent="1">
          <mxGeometry x="480" y="460" as="geometry" />
        </mxCell>
        <mxCell id="_7qX7cvVcUHjCldmI5O1-49" value="Mise a jour de la liste" style="edgeLabel;html=1;align=center;verticalAlign=middle;resizable=0;points=[];" vertex="1" connectable="0" parent="1">
          <mxGeometry x="480" y="370" as="geometry" />
        </mxCell>
      </root>
    </mxGraphModel>
  </diagram>
</mxfile>
